<svg xmlns="http://www.w3.org/2000/svg" width="30" height="30" viewBox="0 0 30 30">
    <g fill="none" fill-rule="evenodd">
        <g fill="#3C1E1E" fill-rule="nonzero">
            <g>
                <g>
                    <path d="M14.96 28C7.803 28 2 23.406 2 17.735c0-3.642 2.404-6.84 6.013-8.665L6.792 4.5c-.047-.14-.008-.29.093-.39.07-.071.163-.11.265-.11.078 0 .155.031.225.086l5.251 3.557c.763-.11 1.54-.172 2.334-.172 7.156 0 12.96 4.594 12.96 10.264C27.92 23.405 22.116 28 14.96 28" transform="translate(-45.000000, -307.000000) translate(32.000000, 294.000000) translate(13.000000, 13.000000) translate(14.960000, 16.000000) scale(-1, 1) rotate(-180.000000) translate(-14.960000, -16.000000)"/>
                </g>
            </g>
        </g>
    </g>
</svg>
