<svg xmlns="http://www.w3.org/2000/svg" width="30" height="30" viewBox="0 0 30 30">
    <g fill="none" fill-rule="evenodd">
        <g fill-rule="nonzero">
            <g>
                <g>
                    <path fill="#4285F4" d="M25.58 13H15.22v4.255h5.92c-.255 1.375-1.03 2.54-2.195 3.32v2.76H22.5c2.08-1.915 3.28-4.735 3.28-8.085 0-.78-.07-1.53-.2-2.25z" transform="translate(-173.000000, -307.000000) translate(160.000000, 294.000000) translate(13.000000, 13.000000)"/>
                    <path fill="#34A853" d="M22.5 23.335l-3.555-2.76c-.985.66-2.245 1.05-3.725 1.05-2.865 0-5.29-1.935-6.155-4.535H5.39v2.85C7.2 23.535 10.92 26 15.22 26c2.97 0 5.46-.985 7.28-2.665z" transform="translate(-173.000000, -307.000000) translate(160.000000, 294.000000) translate(13.000000, 13.000000)"/>
                    <path fill="#FBBC05" d="M8.72 15c0-.725.125-1.43.345-2.09v-2.85H5.39c-.745 1.485-1.17 3.165-1.17 4.94 0 1.775.425 3.455 1.17 4.94l3.675-2.85c-.22-.66-.345-1.365-.345-2.09z" transform="translate(-173.000000, -307.000000) translate(160.000000, 294.000000) translate(13.000000, 13.000000)"/>
                    <path fill="#EA4335" d="M19.425 10.02l3.155-3.155C20.675 5.09 18.185 4 15.22 4c-4.3 0-8.02 2.465-9.83 6.06l3.675 2.85c.865-2.6 3.29-4.535 6.155-4.535 1.615 0 3.065.555 4.205 1.645z" transform="translate(-173.000000, -307.000000) translate(160.000000, 294.000000) translate(13.000000, 13.000000)"/>
                </g>
            </g>
        </g>
    </g>
</svg>
